Coordinates
version=1
nRows=21
nColumns=12
inDegrees=yes

Units are S.I. units (second, meters, Newtons, ...)
Angles are in degrees

endheader
time	SC_y	SC_z	SC_x	AC_y	AC_z	AC_x	GH_y	GH_z	GH_yy	EL_x	PS_y
       0.0              -53.49          33.38          14.12          38.63         -9.977          11.71         -85.96          62.81         -159.2          120.6          158.9
   0.01801              -53.49          33.38          14.13          38.64         -9.979          11.71         -85.95          62.81         -159.2          120.6          158.9
   0.03602              -53.48          33.38          14.14          38.64          -9.98           11.7         -85.94          62.81         -159.2          120.6          158.9
   0.05404              -53.47          33.38          14.14          38.65         -9.981           11.7         -85.93          62.82         -159.2          120.6          158.8
   0.07205              -53.47          33.38          14.15          38.65         -9.982          11.69         -85.91          62.82         -159.2          120.6          158.8
   0.09006              -53.46          33.37          14.16          38.65         -9.984          11.69          -85.9          62.83         -159.2          120.5          158.8
    0.1081              -53.45          33.37          14.17          38.66         -9.985          11.68         -85.88          62.83         -159.2          120.5          158.8
    0.1261              -53.44          33.37          14.18          38.66         -9.987          11.68         -85.87          62.84         -159.2          120.5          158.8
    0.1441              -53.44          33.37          14.19          38.67         -9.989          11.67         -85.85          62.85         -159.1          120.5          158.8
    0.1621              -53.43          33.36           14.2          38.67         -9.991          11.67         -85.83          62.85         -159.1          120.4          158.8
    0.1801              -53.42          33.36          14.21          38.68         -9.993          11.66         -85.81          62.86         -159.1          120.4          158.7
    0.1981              -53.41          33.36          14.23          38.69         -9.995          11.65         -85.79          62.87         -159.1          120.4          158.7
    0.2161               -53.4          33.35          14.24          38.69         -9.997          11.65         -85.76          62.88         -159.1          120.3          158.7
    0.2342              -53.38          33.35          14.25           38.7          -10.0          11.64         -85.74          62.88         -159.1          120.3          158.7
    0.2522              -53.37          33.35          14.27          38.71          -10.0          11.63         -85.71          62.89         -159.0          120.3          158.6
    0.2702              -53.36          33.34          14.29          38.72         -10.01          11.62         -85.68           62.9         -159.0          120.2          158.6
    0.2882              -53.34          33.34          14.31          38.73         -10.01          11.61         -85.65          62.92         -159.0          120.2          158.6
    0.3062              -53.32          33.33          14.33          38.74         -10.01           11.6         -85.61          62.93         -158.9          120.1          158.6
    0.3242               -53.3          33.32          14.35          38.75         -10.02          11.59         -85.57          62.94         -158.9          120.1          158.5
    0.3422              -53.28          33.32          14.38          38.76         -10.02          11.57         -85.53          62.96         -158.9          120.0          158.5
    0.3602              -53.26          33.31           14.4          38.78         -10.02          11.56         -85.48          62.97         -158.8          119.9          158.4
